# xmcd CD database file
#
# Track frame offsets:
#	225
#	13276
#	26300
#	43934
#
# Disc length: 806 seconds
#
# Revision: 1
# Processed by: cddbd v1.5.2PL0 Copyright (c) Steve Scherf et al.
# Submitted via: CDex 1.51
#
DISCID=2c032304
DTITLE=The Road Band - Not Limited
DYEAR=1900
DGENRE=Country
TTITLE0=If I Where Not Here
TTITLE1=Edge Of My Heart
TTITLE2=Desperado
TTITLE3=Maybe She Will
EXTD=
EXTT0=
EXTT1=
EXTT2=
EXTT3=
PLAYORDER=
